PathFileType	4	(X/Y/Z)	C:/Users/opensim2020/Desktop/walking_exp_matlab/subject01_walking13_straight_03.trc	
DataRate	CameraRate	NumFrames	NumMarkers	Units	OrigDataRate	OrigDataStartFrame	OrigNumFrames	
100.00	100.00	4	42	mm	100.00	1711	128	
Frame#	Time	LFHD			RFHD			LBHD			RBHD			C7			T10			CLAV			STRN			RBAK			LSHO			LUPA			LELB			LFRM			LWRA			LWRB			LFIN			RSHO			RUPA			RELB			RFRM			RWRA			RWRB			RFIN			LASI			RASI			LPSI			RPSI			LTHI			LKNE			LTIB			LANK			LHEE			LTOE			RTHI			RKNE			RTIB			RANK			RHEE			RTOE			*39			*40			*41			
		X1	Y1	Z1	X2	Y2	Z2	X3	Y3	Z3	X4	Y4	Z4	X5	Y5	Z5	X6	Y6	Z6	X7	Y7	Z7	X8	Y8	Z8	X9	Y9	Z9	X10	Y10	Z10	X11	Y11	Z11	X12	Y12	Z12	X13	Y13	Z13	X14	Y14	Z14	X15	Y15	Z15	X16	Y16	Z16	X17	Y17	Z17	X18	Y18	Z18	X19	Y19	Z19	X20	Y20	Z20	X21	Y21	Z21	X22	Y22	Z22	X23	Y23	Z23	X24	Y24	Z24	X25	Y25	Z25	X26	Y26	Z26	X27	Y27	Z27	X28	Y28	Z28	X29	Y29	Z29	X30	Y30	Z30	X31	Y31	Z31	X32	Y32	Z32	X33	Y33	Z33	X34	Y34	Z34	X35	Y35	Z35	X36	Y36	Z36	X37	Y37	Z37	X38	Y38	Z38	X39	Y39	Z39	X40	Y40	Z40	X41	Y41	Z41	X42	Y42	Z42	

113	1.120	-1124.01611	627.63678	1649.28638	-1009.06329	633.51135	1653.03003	-1124.52771	508.48822	1612.93860	-1003.27393	511.80527	1615.76306	-1081.36450	457.14056	1416.89136	-1062.63745	412.84927	1123.42419	-1072.92883	598.06024	1342.21533	-1070.10413	635.74548	1187.32251	-997.75940	391.55573	1227.16309	-1236.51147	541.15204	1373.22559	-1315.34033	470.58673	1198.51709	-1311.37280	422.59369	1057.49854	-1333.18604	425.23166	943.43353	-1310.09998	460.91840	808.46649	-1336.19763	408.46988	821.98401	-1345.16882	429.45630	740.65588	-925.87872	529.67920	1377.73169	-807.67023	470.12421	1191.65601	-783.86932	478.76974	1065.28320	-771.96735	568.94092	975.56207	-820.40448	690.67719	930.26691	-776.27722	666.39154	902.66394	-780.33319	744.00262	883.84796	-1153.55249	602.26233	921.58917	-936.55066	576.83026	914.82532	-1127.90112	411.24692	927.27777	-985.31464	395.84241	934.77606	-1219.63025	660.36938	609.57019	-1206.06689	688.62524	480.20926	-1218.50818	684.44910	293.12582	-1182.54834	720.08301	73.85314	-1132.25488	677.62354	41.52662	-1172.62646	867.53931	54.03429	-898.30408	455.90497	590.00238	-925.39154	422.32898	430.77100	-929.77631	289.27344	311.81387	-982.72717	165.47594	145.78799	-1033.57532	107.26265	145.85814	-1003.63446	257.80695	35.84164	-1032.62915	625.50171	1686.99170	-3101.90137	1973.12244	1023.63123	-3140.73438	2012.56494	1022.15302 
114	1.130	-1125.34082	640.66724	1649.91394	-1010.44574	645.86774	1653.58154	-1126.63354	521.53052	1613.55164	-1005.22205	524.27686	1616.34460	-1083.57483	470.36844	1417.21729	-1063.62183	426.29752	1123.66711	-1074.28516	610.98987	1342.72192	-1071.10669	649.21210	1187.95825	-1000.05896	404.56039	1227.06580	-1238.22424	554.54523	1372.68689	-1316.83398	485.51474	1197.26892	-1313.02490	438.56879	1055.73022	-1334.62683	442.19821	941.61932	-1310.89856	478.81573	807.10193	-1337.39917	426.40802	820.07819	-1346.03076	448.26572	739.07983	-927.21918	542.15930	1378.10132	-809.72186	481.24759	1191.73364	-785.93707	489.50742	1065.17993	-773.32281	578.96320	974.57721	-821.10699	700.39978	928.07642	-777.35010	675.37714	900.51984	-781.32635	752.45538	880.67639	-1154.28333	615.98566	921.70044	-937.60077	591.00031	914.70215	-1128.33105	424.93784	927.98602	-985.35059	409.79984	934.05096	-1222.11072	672.46216	610.98596	-1205.22437	703.07922	482.58884	-1220.33643	698.25360	295.31174	-1182.78259	723.12207	74.26302	-1132.40930	679.31537	42.48337	-1173.70093	869.63690	49.32833	-898.33246	473.77393	588.33087	-923.58331	441.45981	429.31995	-929.15094	304.19739	314.95483	-982.11133	175.33791	153.11133	-1033.88062	118.91702	156.14461	-1003.78943	259.28882	35.86020	-1034.12256	637.78174	1687.66138	-3101.84961	1973.17651	1023.26837	-3140.67505	2012.52319	1022.02161 
115	1.140	-1126.66968	653.71808	1650.47546	-1011.79706	658.28516	1654.24646	-1128.60413	534.61963	1614.20251	-1007.17017	536.65802	1617.04382	-1085.47095	483.65714	1417.79578	-1064.52100	439.62497	1124.11462	-1075.50085	623.98114	1343.44324	-1072.03650	662.61755	1188.76868	-1002.04926	417.55795	1227.26733	-1239.66748	567.86761	1372.43042	-1318.27258	500.75113	1196.33044	-1314.68823	454.96442	1054.20923	-1335.97620	459.76758	940.03766	-1311.72241	497.43271	806.00244	-1338.62854	445.11649	818.40143	-1347.15405	467.96231	737.87213	-928.57904	554.47498	1378.62683	-811.93719	492.16321	1192.14514	-788.22607	500.18088	1065.49902	-774.94946	588.34967	973.72217	-822.21069	709.21436	925.37482	-778.46649	683.88977	898.23834	-781.98981	760.52301	877.38342	-1155.04749	629.44995	922.21387	-938.80804	605.26068	914.93250	-1128.38379	438.39700	928.91785	-985.14917	423.72699	933.42474	-1223.09509	682.91241	611.28790	-1204.18445	716.78430	484.97778	-1222.36377	710.80725	296.87256	-1182.17590	724.67889	75.01855	-1132.38123	680.44446	43.13418	-1175.44653	871.21600	46.73072	-897.90100	492.46362	586.92981	-921.01697	461.96451	427.87595	-928.63043	321.01279	317.84485	-981.61237	187.57953	160.34190	-1034.76172	133.31270	166.69110	-1004.19153	261.17511	35.87783	-1035.37952	650.43579	1688.49927	-3101.92651	1973.15869	1023.34363	-3140.66357	2012.41687	1021.95209 
116	1.150	-1128.09314	666.66052	1651.11243	-1013.17120	670.70978	1655.10693	-1130.53210	547.63269	1614.78503	-1009.13452	549.07910	1617.83191	-1086.97803	496.83423	1418.46326	-1065.41614	452.72775	1124.75024	-1076.58093	636.96820	1344.23608	-1072.81030	675.85516	1189.66956	-1003.73273	430.40070	1227.80139	-1240.94055	581.14410	1372.44861	-1319.61438	516.14893	1195.72949	-1316.21326	471.65491	1053.04504	-1337.33313	477.93716	938.91504	-1312.60242	516.84003	805.34454	-1340.07166	464.69751	817.14838	-1348.01892	488.50311	736.76324	-929.89441	567.01337	1379.39929	-814.27026	502.87714	1192.75647	-790.56714	510.63715	1066.24731	-776.91931	597.34930	973.01721	-822.92816	717.86792	922.73334	-779.62982	691.65906	895.84100	-782.59039	768.01019	873.64551	-1155.78516	642.63153	923.26318	-939.97058	618.12799	914.93195	-1128.35291	451.33356	930.00800	-984.78943	437.15045	933.20752	-1223.30115	694.91559	612.27576	-1203.53772	729.39746	486.15176	-1224.44958	720.63513	296.92957	-1181.50378	726.20190	75.17791	-1132.14014	681.39191	43.41093	-1174.96033	873.37451	45.17220	-896.94885	511.38879	585.73120	-918.58411	483.19769	426.36765	-927.45728	339.40451	320.91052	-980.91345	201.76616	166.95993	-1035.65686	150.10837	177.17506	-1005.05701	263.24356	35.84081	-1037.14587	663.31885	1689.40710	-3101.87231	1973.23340	1023.40118	-3140.80347	2012.54272	1022.15546 
